<?xml version="1.0" standalone="no"?>
<!DOCTYPE svg PUBLIC "-//W3C//DTD SVG 20010904//EN"
 "http://www.w3.org/TR/2001/REC-SVG-20010904/DTD/svg10.dtd">
<svg version="1.0" xmlns="http://www.w3.org/2000/svg"
 width="500.000000pt" height="500.000000pt" viewBox="0 0 500.000000 500.000000"
 preserveAspectRatio="xMidYMid meet">
<metadata>
Created by potrace 1.14, written by Peter Selinger 2001-2017
</metadata>
<g transform="translate(0.000000,500.000000) scale(0.100000,-0.100000)"
fill="#000000" stroke="none">
<path d="M2770 4275 c-25 -13 -90 -45 -145 -71 -55 -25 -102 -49 -105 -53 -3
-3 -12 -10 -21 -16 -114 -71 -128 -107 -104 -257 l7 -47 -40 -10 c-23 -7 -50
-8 -64 -3 -35 13 -74 6 -107 -19 -16 -12 -37 -19 -45 -16 -19 8 -15 54 15 157
28 100 30 196 3 207 -26 10 -47 -23 -56 -88 -9 -70 -44 -142 -71 -147 -16 -3
-18 1 -12 41 8 52 -9 144 -37 205 -22 46 -41 53 -58 22 -12 -22 -10 -48 10
-119 10 -39 7 -137 -5 -149 -3 -3 -7 4 -11 14 -32 93 -113 208 -138 198 -26
-10 -23 -41 10 -97 18 -30 35 -69 37 -86 3 -16 8 -34 11 -40 23 -37 -61 2
-123 58 -18 16 -27 18 -38 10 -34 -29 1 -85 85 -135 50 -29 59 -103 16 -130
-32 -21 -55 -66 -55 -107 -1 -61 10 -132 24 -166 12 -28 12 -40 1 -78 -12 -38
-11 -50 1 -80 8 -20 15 -66 15 -105 0 -78 4 -88 54 -141 l35 -37 -75 -124
c-80 -134 -109 -160 -225 -209 -137 -56 -212 -107 -324 -221 -256 -260 -314
-488 -209 -814 37 -115 144 -282 229 -359 59 -53 115 -97 115 -90 0 2 -16 44
-36 93 -46 115 -44 151 21 282 35 69 64 113 104 152 52 51 173 125 185 113 3
-3 -4 -24 -15 -46 -55 -107 7 -286 123 -357 48 -29 58 -25 18 8 -28 24 -34 36
-36 73 -3 54 20 110 66 163 52 59 104 84 192 92 113 10 114 9 74 -83 -54 -127
-76 -165 -121 -213 -81 -84 -95 -103 -119 -154 -14 -28 -27 -69 -29 -91 -6
-55 -15 -73 -54 -122 -19 -24 -37 -59 -40 -80 -3 -21 -18 -76 -33 -123 -42
-127 -45 -147 -25 -190 19 -43 53 -58 84 -38 11 6 51 64 90 127 39 64 84 127
101 140 27 21 45 61 57 125 3 18 40 85 53 96 3 3 28 32 55 65 28 33 99 109
158 170 112 113 195 215 222 273 12 25 23 32 45 33 54 3 65 5 86 16 17 10 25
9 40 -2 11 -7 19 -17 19 -22 3 -36 22 -57 72 -79 49 -22 55 -27 50 -50 -3 -19
3 -34 27 -57 91 -90 171 -115 246 -77 l41 21 -21 26 c-11 15 -29 33 -40 40
-19 14 -53 100 -48 124 3 16 33 40 45 37 4 -1 24 6 43 16 36 20 56 21 250 16
58 -2 115 0 126 4 30 9 68 101 66 159 -1 41 -42 105 -105 164 -61 58 -151 119
-191 129 -14 3 -28 9 -30 13 -3 4 18 31 45 61 57 63 109 134 109 149 0 6 4 11
8 11 5 0 14 11 20 25 13 28 41 32 104 14 27 -7 40 -17 44 -33 3 -13 21 -36 40
-51 19 -15 34 -36 34 -46 0 -27 33 -42 56 -25 18 13 18 16 2 49 -14 30 -15 38
-3 53 12 17 28 19 129 19 118 0 133 5 120 40 -4 9 -11 15 -18 14 -6 -1 -23 1
-38 4 -16 4 -39 9 -53 12 -14 3 -25 9 -25 14 0 13 48 31 84 31 85 0 42 73 -62
106 -67 22 -75 21 -126 -17 -22 -16 -44 -29 -49 -29 -5 0 -34 26 -63 58 l-53
57 -1 70 c-1 193 -75 344 -212 431 -49 32 -88 64 -88 74 0 4 25 12 55 19 32 7
55 18 55 26 0 15 -92 96 -137 118 -17 9 -34 21 -38 26 -3 6 24 24 60 41 36 17
65 35 65 40 0 9 -124 71 -169 85 -34 10 -12 26 39 27 41 0 42 1 23 19 -10 11
-59 33 -108 51 -50 17 -97 36 -105 43 -8 7 -64 46 -124 86 -60 41 -117 80
-128 88 -23 17 -49 7 -103 -41 -41 -35 -102 -48 -112 -22 -8 21 18 156 36 187
8 15 82 75 163 133 169 121 200 148 108 99z"/>
</g>
</svg>
